<svg width="282" height="166" viewBox="0 0 282 166" version="1.1" xmlns="http://www.w3.org/2000/svg"><title>Group 29</title><defs><linearGradient x1="50%" y1="0%" x2="50%" y2="100%" id="a"><stop stop-color="#F2F2F2" offset="0%"/><stop stop-color="#F2F2F2" stop-opacity=".869" offset="32.601%"/><stop stop-color="#F2F2F2" stop-opacity="0" offset="100%"/></linearGradient></defs><g stroke="none" stroke-width="1" fill="none" fill-rule="evenodd"><path d="M4 0h274a4 4 0 0 1 4 4v162H0V4a4 4 0 0 1 4-4z" fill="url(#a)"/><g transform="translate(12 9)"><path d="M99.397 8.105c.078 1.26 1.128 2.066 2.69 2.066 1.67 0 2.715-.845 2.715-2.192 0-1.06-.595-1.646-2.04-1.983l-.777-.19c-.918-.215-1.29-.503-1.29-1.006 0-.635.577-1.05 1.441-1.05.82 0 1.387.405 1.49 1.055h1.064c-.063-1.187-1.108-2.022-2.539-2.022-1.538 0-2.563.835-2.563 2.09 0 1.035.58 1.65 1.855 1.948l.908.22c.933.22 1.343.542 1.343 1.08 0 .624-.645 1.078-1.523 1.078-.943 0-1.597-.425-1.69-1.094h-1.084zM106.954 10V4.912h.068l2.065 4.883h.83l2.066-4.883h.068V10h1.016V2.954h-1.28l-2.246 5.352h-.083l-2.24-5.352h-1.28V10h1.016zm7.248-1.895c.078 1.26 1.128 2.066 2.69 2.066 1.67 0 2.716-.845 2.716-2.192 0-1.06-.596-1.646-2.041-1.983l-.777-.19c-.918-.215-1.289-.503-1.289-1.006 0-.635.576-1.05 1.44-1.05.82 0 1.387.405 1.49 1.055h1.064c-.063-1.187-1.108-2.022-2.539-2.022-1.538 0-2.563.835-2.563 2.09 0 1.035.58 1.65 1.855 1.948l.908.22c.933.22 1.343.542 1.343 1.08 0 .624-.644 1.078-1.523 1.078-.943 0-1.597-.425-1.69-1.094h-1.084zM126.058 10h-1.093V3.95h-2.217v-.996h5.522v.996h-2.212V10zm4.54-4.526c-.777 0-1.32.547-1.378 1.377h2.686c-.025-.835-.532-1.377-1.309-1.377zm1.303 3.09h1.01c-.239.953-1.088 1.539-2.304 1.539-1.523 0-2.456-1.045-2.456-2.745 0-1.699.952-2.778 2.451-2.778 1.48 0 2.373 1.01 2.373 2.68v.367h-3.755v.059c.034.932.576 1.523 1.416 1.523.635 0 1.07-.23 1.265-.645zM133.984 10h1.05V2.607h-1.05V10zm4.504-4.526c-.776 0-1.318.547-1.376 1.377h2.685c-.024-.835-.532-1.377-1.309-1.377zm1.304 3.09h1.01c-.238.953-1.088 1.539-2.304 1.539-1.523 0-2.456-1.045-2.456-2.745 0-1.699.952-2.778 2.451-2.778 1.48 0 2.373 1.01 2.373 2.68v.367h-3.754v.059c.034.932.576 1.523 1.416 1.523.634 0 1.069-.23 1.264-.645zm4.793-3.97c1.352 0 2.207 1.055 2.207 2.745 0 1.69-.855 2.749-2.197 2.749-.757 0-1.358-.332-1.636-.894h-.083v2.53h-1.05V4.683h1.01v.879h.079c.322-.606.947-.967 1.67-.967zm-.298 4.552c.894 0 1.426-.68 1.426-1.807 0-1.123-.532-1.802-1.421-1.802-.884 0-1.436.693-1.436 1.807 0 1.108.552 1.802 1.431 1.802zm5.71.024c.91 0 1.427-.674 1.427-1.831 0-1.152-.518-1.826-1.426-1.826-.913 0-1.426.674-1.426 1.826 0 1.162.513 1.83 1.426 1.83zm0 .933c-1.557 0-2.509-1.04-2.509-2.764 0-1.714.957-2.759 2.51-2.759 1.548 0 2.505 1.045 2.505 2.759 0 1.723-.952 2.764-2.505 2.764zm3.465-.103h1.05V6.86c0-.747.562-1.25 1.353-1.25.176 0 .498.035.58.064V4.639a2.202 2.202 0 0 0-.463-.044c-.693 0-1.28.38-1.43.903h-.079v-.815h-1.01V10zm4.017-6.606v1.313h-.874v.884h.874v3.003c0 1.025.464 1.435 1.63 1.435.206 0 .396-.024.562-.053v-.874c-.146.014-.23.024-.39.024-.523 0-.752-.244-.752-.8V5.59h1.191v-.884h-1.191V3.394h-1.05z" fill="#B0ADB0"/><circle fill="#CCC" cx="3" cy="7" r="3"/><circle fill="#CCC" opacity=".75" cx="13" cy="7" r="3"/><circle fill="#CCC" opacity=".5" cx="23" cy="7" r="3"/></g></g></svg>