<svg width="195" height="40" viewBox="0 0 195 40" version="1.1" xmlns="http://www.w3.org/2000/svg"><title>Group 23</title><g stroke="none" stroke-width="1" fill="none" fill-rule="evenodd"><g fill="#894EFF"><path d="M60 4h135v6H60zM60 18h115.435v6H60zM60 32h64.565v6H60z"/></g><path d="M1.36 40h18.986C31.228 39.822 40 30.936 40 20 40 8.954 31.051 0 20.013 0 8.973 0 .025 8.954.025 20c0 5.07 1.886 9.7 4.994 13.226l-4.828 5.28S-.699 40 1.36 40z" fill="#894EFF"/><path d="M13.428 21.986c0-.344-.12-.609-.362-.795-.242-.186-.678-.374-1.308-.564-.63-.19-1.131-.401-1.504-.634-.712-.447-1.069-1.031-1.069-1.75 0-.631.257-1.15.771-1.558.514-.409 1.18-.613 2-.613.545 0 1.03.1 1.456.301.426.2.761.486 1.005.857.243.37.365.781.365 1.232h-1.354c0-.408-.128-.727-.384-.958-.256-.231-.622-.347-1.098-.347-.444 0-.789.095-1.034.285-.245.19-.368.455-.368.795 0 .286.133.525.398.717.265.191.701.378 1.31.558.609.181 1.098.387 1.467.618.368.231.639.496.81.795.172.299.258.65.258 1.05 0 .652-.25 1.17-.749 1.555-.5.385-1.177.577-2.033.577a3.82 3.82 0 0 1-1.56-.314c-.475-.21-.843-.498-1.107-.867a2.162 2.162 0 0 1-.394-1.29h1.358c0 .445.147.788.44 1.032.295.243.715.365 1.263.365.473 0 .828-.096 1.066-.287a.927.927 0 0 0 .357-.76zm4.313-5.806l2.256 5.994 2.25-5.994h1.757V24h-1.353v-2.578l.134-3.448L20.475 24h-.972L17.2 17.979l.134 3.443V24H15.98v-7.82h1.761zm11.957 5.806c0-.344-.121-.609-.363-.795-.242-.186-.678-.374-1.308-.564-.63-.19-1.131-.401-1.504-.634-.712-.447-1.069-1.031-1.069-1.75 0-.631.257-1.15.771-1.558.514-.409 1.18-.613 2-.613.545 0 1.03.1 1.456.301.427.2.761.486 1.005.857.243.37.365.781.365 1.232h-1.353c0-.408-.128-.727-.385-.958-.256-.231-.622-.347-1.098-.347-.444 0-.789.095-1.034.285-.245.19-.368.455-.368.795 0 .286.133.525.398.717.265.191.702.378 1.31.558.609.181 1.098.387 1.467.618.368.231.639.496.81.795.172.299.258.65.258 1.05 0 .652-.25 1.17-.749 1.555-.5.385-1.177.577-2.033.577a3.82 3.82 0 0 1-1.56-.314c-.475-.21-.843-.498-1.107-.867a2.162 2.162 0 0 1-.394-1.29h1.359c0 .445.146.788.44 1.032.294.243.714.365 1.262.365.473 0 .828-.096 1.066-.287a.927.927 0 0 0 .358-.76z" fill="#FFF"/></g></svg>