<svg width="168" height="67" viewBox="0 0 168 67" version="1.1" xmlns="http://www.w3.org/2000/svg"><title>Group 28</title><g stroke="none" stroke-width="1" fill="none" fill-rule="evenodd"><rect fill="#FFF" x="0" y="0" width="168" height="67" rx="2"/><g fill="#894EFF"><path d="M67 20h82v5H67zM67 31h70.725v5H67zM67 42h38.95v5H67z"/></g><path d="M20.088 49h15.189C43.982 48.858 51 41.749 51 33c0-8.837-7.159-16-15.99-16s-15.99 7.163-15.99 16c0 4.057 1.509 7.76 3.995 10.58l-3.862 4.225S18.442 49 20.088 49z" fill="#894EFF"/><path d="M29.623 34.352c0-.281-.099-.498-.296-.65-.198-.153-.555-.306-1.07-.462-.516-.155-.926-.328-1.23-.518-.584-.367-.875-.844-.875-1.433 0-.516.21-.94.63-1.274.42-.334.966-.501 1.637-.501.446 0 .842.082 1.191.246.349.164.623.397.822.7.2.304.299.64.299 1.01h-1.108c0-.335-.104-.596-.314-.785-.21-.19-.509-.284-.899-.284-.363 0-.645.078-.846.233-.2.156-.3.372-.3.65 0 .235.108.43.325.587.216.157.574.31 1.072.457.498.148.898.317 1.2.506.301.189.523.406.663.65.14.245.211.531.211.86 0 .532-.204.957-.613 1.271-.409.315-.963.473-1.663.473-.463 0-.889-.086-1.277-.257a2.144 2.144 0 0 1-.905-.71 1.769 1.769 0 0 1-.323-1.055h1.112c0 .364.12.645.36.844.24.2.584.299 1.033.299.386 0 .677-.078.872-.235a.759.759 0 0 0 .292-.622zm3.53-4.75l1.845 4.904 1.841-4.904h1.437V36H37.17v-2.11l.11-2.82-1.89 4.93h-.795l-1.886-4.926.11 2.817V36h-1.107v-6.398h1.441zm9.781 4.75c0-.281-.099-.498-.296-.65-.198-.153-.555-.306-1.07-.462-.516-.155-.926-.328-1.23-.518-.584-.367-.875-.844-.875-1.433 0-.516.21-.94.63-1.274.42-.334.966-.501 1.637-.501.446 0 .843.082 1.191.246.349.164.623.397.822.7.2.304.299.64.299 1.01h-1.108c0-.335-.104-.596-.314-.785-.21-.19-.509-.284-.899-.284-.363 0-.645.078-.846.233-.2.156-.3.372-.3.65 0 .235.108.43.325.587.216.157.574.31 1.072.457.498.148.898.317 1.2.506.301.189.523.406.663.65.14.245.211.531.211.86 0 .532-.204.957-.613 1.271-.409.315-.963.473-1.663.473-.463 0-.889-.086-1.277-.257a2.144 2.144 0 0 1-.905-.71 1.769 1.769 0 0 1-.323-1.055h1.112c0 .364.12.645.36.844.24.2.585.299 1.033.299.386 0 .677-.078.872-.235a.759.759 0 0 0 .292-.622z" fill="#FFF"/></g></svg>